<svg xmlns="http://www.w3.org/2000/svg" viewBox="0 0 2386.83 392.7"><defs><style>.cls-1,.cls-2{fill:#f7f7ef;}.cls-2{opacity:0.5;}</style></defs><title>anastomosis whiteAsset 1mdpi</title><g id="Layer_2" data-name="Layer 2"><g id="Layer_5" data-name="Layer 5"><path class="cls-1" d="M481.64,277.22a6.19,6.19,0,0,1-5.56-3.46L410.55,140.45,343.87,273.8a6.18,6.18,0,1,1-11.06-5.54l72.25-144.51a6.2,6.2,0,0,1,5.53-3.42h0a6.2,6.2,0,0,1,5.54,3.46l71,144.51a6.2,6.2,0,0,1-5.55,8.92Z"/><path class="cls-1" d="M881.53,277.22a6.19,6.19,0,0,1-5.56-3.46L810.44,140.45,743.77,273.8a6.19,6.19,0,0,1-11.07-5.54L805,123.75a6.32,6.32,0,0,1,5.56-3.42,6.19,6.19,0,0,1,5.53,3.46l71,144.51a6.2,6.2,0,0,1-5.55,8.92Z"/><path class="cls-1" d="M682.49,277.22a6.17,6.17,0,0,1-4.38-1.82L544.84,141.57,545.39,271a6.19,6.19,0,0,1-12.38.06l-.61-144.51a6.2,6.2,0,0,1,10.58-4.4L676.3,256.05V126.52a6.19,6.19,0,1,1,12.38,0V271a6.18,6.18,0,0,1-3.83,5.72A6.25,6.25,0,0,1,682.49,277.22Z"/><path class="cls-1" d="M1046.87,277.22H938.48a6.19,6.19,0,0,1,0-12.38h108.39a29.94,29.94,0,1,0,0-59.88H973.53a42.31,42.31,0,0,1,0-84.6l.41,0h109a6.19,6.19,0,1,1,0,12.38H974.61a29.94,29.94,0,0,0,0,59.88h72.26a42.32,42.32,0,0,1,0,84.63Z"/><path class="cls-1" d="M2048.12,277.22H1939.74a6.19,6.19,0,0,1,0-12.38h108.38a29.94,29.94,0,1,0,0-59.88h-73.34a42.31,42.31,0,0,1,0-84.6l.42,0h109a6.19,6.19,0,1,1,0,12.38H1975.86a29.94,29.94,0,1,0,0,59.88h72.26a42.32,42.32,0,1,1,0,84.63Z"/><path class="cls-1" d="M2344.51,277.22H2236.13a6.19,6.19,0,0,1,0-12.38h108.38a29.94,29.94,0,0,0,0-59.88h-73.33a42.31,42.31,0,0,1,0-84.6l.41,0h109a6.19,6.19,0,1,1,0,12.38H2272.26a29.94,29.94,0,0,0,0,59.88h72.25a42.32,42.32,0,1,1,0,84.63Z"/><path class="cls-1" d="M1283.24,120.33H1138.73a6.19,6.19,0,0,0,0,12.38h66.07V271a6.19,6.19,0,0,0,12.38,0V132.71h66.06a6.19,6.19,0,1,0,0-12.38Z"/><path class="cls-1" d="M1411.24,277.22a78.45,78.45,0,1,1,78.44-78.45A78.53,78.53,0,0,1,1411.24,277.22Zm0-144.51a66.07,66.07,0,1,0,66.07,66.06A66.14,66.14,0,0,0,1411.24,132.71Z"/><path class="cls-1" d="M1811.74,277.22a78.45,78.45,0,1,1,78.44-78.45A78.53,78.53,0,0,1,1811.74,277.22Zm0-144.51a66.07,66.07,0,1,0,66.07,66.06A66.14,66.14,0,0,0,1811.74,132.71Z"/><path class="cls-1" d="M1683.75,277.22a6.19,6.19,0,0,1-6.19-6.19V141.14L1615.8,201a6.19,6.19,0,0,1-8.62,0l-61.76-59.88V271a6.19,6.19,0,1,1-12.37,0V126.52a6.18,6.18,0,0,1,10.49-4.44l68,65.88,68-65.88a6.18,6.18,0,0,1,10.49,4.44V271A6.19,6.19,0,0,1,1683.75,277.22Z"/><path class="cls-1" d="M2160.19,277.22A6.19,6.19,0,0,1,2154,271V126.52a6.19,6.19,0,1,1,12.38,0V271A6.19,6.19,0,0,1,2160.19,277.22Z"/><path class="cls-1" d="M358,330.17c5.89,0,11.6,2.45,14.25,7.12V319.78c0-4,6.41-4,6.41,0v53.13a2.92,2.92,0,0,1-3.25,3.08c-2,0-3-1.15-3-3.08v-4.14c-3,5.46-9.15,7.75-14.42,7.75a22.14,22.14,0,0,1-8.45-1.68l.09.09c-9.59-3.95-14.43-12.67-14.16-22.87C335.84,339.57,344.81,330.17,358,330.17Zm14.25,26.55v-6.94c0-7.74-6-13.2-14-13.55-6.25,0-12.49,3.34-15,9.42a21.5,21.5,0,0,0-1.32,6.5c-.09,5.72,1.76,11,6.51,15a16.57,16.57,0,0,0,9.06,3.33C365.48,370.44,372.26,365.35,372.26,356.72Z"/><path class="cls-1" d="M419.24,330.87c9.93,2.72,16.09,10.82,16.27,22.08v-.09c.17,1.93-.71,4.05-4.31,4.05H396.45c1.15,7.21,7.31,13.18,16.1,13.18a19.06,19.06,0,0,0,11.7-3.69c3.07-2.82,7.65.79,4.22,4.31-4.05,3.78-9.94,5.36-15.66,5.28-6.86,0-13.72-2.64-17.85-7.83-9.5-12.49-5.36-32.72,11-37.29a24.75,24.75,0,0,1,13.2,0Zm-23.05,20.67h33.16c-.62-7.49-5.19-13.2-12.05-15h.09a18.55,18.55,0,0,0-9.5.09C400.85,338.53,396.72,344.42,396.19,351.54Z"/><path class="cls-1" d="M449.5,364.38c.88,4,7.74,6,14.16,6,4.31,0,13.55-1.93,13.55-8,0-5.63-6.69-5.89-13.81-6.41-9.51-.89-19.71-1.67-19.71-12.5,0-9.41,10.73-13.46,19.18-13.46,6.77,0,16.18,1.15,19.26,9.07,1.23,4-4.84,5.63-6,2.29-1.94-5.11-9.32-5.46-13.28-5.46-5.1,0-12.76,2.2-12.76,7.65,0,5.63,6.51,5.54,13.55,6.07,9.67.88,20,1.76,20,12.75s-12.67,13.81-20,13.81-18.56-1.84-20.31-10.64C442.29,361.83,448.71,360,449.5,364.38Z"/><path class="cls-1" d="M499.64,324.09c0,4-6.6,4.05-6.6,0v-4c0-4,6.6-4,6.6,0Zm-6.51,9.5c0-3.78,6.42-3.87,6.42-.08v39.66c0,3.87-6.42,3.79-6.42,0Z"/><path class="cls-1" d="M552.32,373.35c0,12.75-9.67,19.35-21.72,19.35-6.69,0-12.05-1.58-16.8-6.07-3.52-3.43,1.32-7.48,4.31-4.58,4.4,3.35,7.56,4.41,12.49,4.41,8,0,15.48-4,15.48-13.11V368.6c-3.08,5.54-8.8,7.65-14.08,7.73a23,23,0,0,1-9.49-1.66c-8.19-3.34-13.2-11.35-13.37-20.23-.26-10.2,4.48-18.92,14.07-22.86a23.11,23.11,0,0,1,8.27-1.5c5.36,0,11.52,2,14.42,6.85v-3.34a2.91,2.91,0,0,1,3.17-3.16,3,3,0,0,1,3.25,3.16ZM522,339.4h.08c-4.83,4-6.68,9.24-6.5,15a18.85,18.85,0,0,0,1.32,6.5c2.46,6.17,8.79,9.51,15,9.42h-.09c7.91-.35,14.07-6.07,14.07-13.55v-6.94c0-5.54-2.28-9.76-7.47-12A16.12,16.12,0,0,0,522,339.4Z"/><path class="cls-1" d="M602.64,349.6A13.6,13.6,0,0,0,589,335.88a16.7,16.7,0,0,0-16.53,16.62v20.41a2.86,2.86,0,0,1-3.17,3.08c-2,0-3.35-1.15-3.35-3.08v-39.4c0-4.05,6.34-4.14,6.34.08v5.46c3.17-6.43,9.94-9.16,16.8-9.16,10.2,0,20,7,20,19.71v23.31A2.86,2.86,0,0,1,605.9,376a3,3,0,0,1-3.26-3.08Z"/><path class="cls-1" d="M652.44,372.82a3.22,3.22,0,0,1-6.43,0V320a3.22,3.22,0,0,1,6.43,0Z"/><path class="cls-1" d="M676.19,331.84a21,21,0,0,1,9.41-1.67c5,.09,10.73,1.67,13.9,6.85v-3.34a3,3,0,0,1,3.16-3.16,3.07,3.07,0,0,1,3.26,3.16v39.05a3,3,0,0,1-3.26,3.17,2.91,2.91,0,0,1-3.16-3.17v-4.22c-2.56,5.1-9.06,8-14.26,8a22.16,22.16,0,0,1-12.66-3.79c-6.68-4.57-10.11-12.05-9.85-20.67.18-8.88,5.1-17.06,13.55-20.31Zm23.31,24.88v-6.94c0-8.71-6.07-13.2-14-13.55-6.24-.08-12.58,3.25-15,9.42a19.08,19.08,0,0,0-1.32,6.5c-.18,5.72,1.67,11,6.42,15a17.11,17.11,0,0,0,9.06,3.33C692.72,370.44,699.05,365.52,699.5,356.72Z"/><path class="cls-1" d="M748.68,374.93l.08-.09a22.05,22.05,0,0,1-8.44,1.68c-5.28,0-11.44-2.29-14.43-7.75v4.14c0,1.93-1,3.08-3,3.08a2.92,2.92,0,0,1-3.25-3.08V319.78c0-4,6.42-4,6.42,0v17.51c2.64-4.67,8.35-7.12,14.25-7.12,13.19,0,22.16,9.4,22.51,21.89C763.1,362.26,758.26,371,748.68,374.93Zm1.22-7.82c4.75-4,6.6-9.24,6.52-15a21.5,21.5,0,0,0-1.32-6.5c-2.56-6.08-8.8-9.42-15.05-9.42-8,.35-14,5.81-14,13.55v6.94c0,8.63,6.77,13.72,14.78,13.72A16.51,16.51,0,0,0,749.9,367.11Z"/><path class="cls-2" d="M89.3,133.16A4.73,4.73,0,0,1,86,125.1L194.07,17a4.72,4.72,0,0,1,6.67,6.67L92.64,131.77A4.68,4.68,0,0,1,89.3,133.16Z"/><path class="cls-2" d="M89.3,165.38a4.72,4.72,0,0,1-3.34-8L210.18,33.11a4.72,4.72,0,0,1,6.67,6.67L92.64,164A4.71,4.71,0,0,1,89.3,165.38Z"/><path class="cls-2" d="M89.3,197.14A4.72,4.72,0,0,1,86,189.08L226.29,48.75A4.72,4.72,0,0,1,233,55.43L92.64,195.76A4.71,4.71,0,0,1,89.3,197.14Z"/><path class="cls-2" d="M94.8,224.34a4.72,4.72,0,0,1-3.34-8.06L242.4,65.34A4.72,4.72,0,0,1,249.08,72l-151,151A4.69,4.69,0,0,1,94.8,224.34Z"/><path class="cls-2" d="M110.91,240.45a4.72,4.72,0,0,1-3.34-8.06l151-150.94a4.72,4.72,0,1,1,6.67,6.67l-150.95,151A4.69,4.69,0,0,1,110.91,240.45Z"/><path class="cls-2" d="M127,256.56a4.72,4.72,0,0,1-3.34-8.05l140.7-140.7a4.72,4.72,0,1,1,6.68,6.67l-140.7,140.7A4.71,4.71,0,0,1,127,256.56Z"/><path class="cls-2" d="M143.18,272.72a4.72,4.72,0,0,1-3.34-8.05L264.38,140.12a4.72,4.72,0,1,1,6.68,6.68L146.52,271.34A4.71,4.71,0,0,1,143.18,272.72Z"/><path class="cls-2" d="M159.25,288.79a4.72,4.72,0,0,1-3.34-8.06L264.38,172.26a4.72,4.72,0,1,1,6.68,6.67L162.58,287.41A4.69,4.69,0,0,1,159.25,288.79Z"/><path class="cls-2" d="M174,306.15a4.72,4.72,0,0,1-3.34-8.06l93.73-93.72a4.72,4.72,0,1,1,6.68,6.67l-93.73,93.73A4.73,4.73,0,0,1,174,306.15Z"/><path class="cls-2" d="M89.34,101.85A4.73,4.73,0,0,1,86,93.79L178.41,1.38a4.72,4.72,0,0,1,6.68,6.68l-92.41,92.4A4.68,4.68,0,0,1,89.34,101.85Z"/><path class="cls-1" d="M89.34,392.7,0,303.36V179.78L89.33,90.44l89.35,89.33V303.36ZM9.44,299.45l79.9,79.9,79.9-79.9V183.68L89.33,103.79,9.44,183.69Z"/></g></g></svg>